<svg width="19" height="18" viewBox="0 0 19 18" fill="none" xmlns="http://www.w3.org/2000/svg">
    <path fill-rule="evenodd" clip-rule="evenodd"
        d="M5.1335 1H13.5335C14.3901 1 14.9724 1.00078 15.4225 1.03755C15.8609 1.07337 16.0851 1.1383 16.2415 1.21799C16.6178 1.40973 16.9238 1.71569 17.1155 2.09202C17.1952 2.24842 17.2601 2.47262 17.2959 2.91104C17.3327 3.36113 17.3335 3.94342 17.3335 4.8V13.2C17.3335 14.0566 17.3327 14.6389 17.2959 15.089C17.2601 15.5274 17.1952 15.7516 17.1155 15.908C16.9238 16.2843 16.6178 16.5903 16.2415 16.782C16.0851 16.8617 15.8609 16.9266 15.4225 16.9624C14.9724 16.9992 14.3901 17 13.5335 17H5.1335C4.27692 17 3.69462 16.9992 3.24453 16.9624C2.80612 16.9266 2.58191 16.8617 2.42552 16.782C2.04919 16.5903 1.74323 16.2843 1.55148 15.908C1.47179 15.7516 1.40687 15.5274 1.37105 15.089C1.33427 14.6389 1.3335 14.0566 1.3335 13.2V4.8C1.3335 3.94342 1.33427 3.36113 1.37105 2.91104C1.40687 2.47262 1.47179 2.24842 1.55148 2.09202C1.74323 1.71569 2.04919 1.40973 2.42552 1.21799C2.58191 1.1383 2.80612 1.07337 3.24453 1.03755C3.69462 1.00078 4.27692 1 5.1335 1ZM0.333496 4.8C0.333496 3.11984 0.333496 2.27976 0.660477 1.63803C0.948097 1.07354 1.40704 0.614601 1.97152 0.32698C2.61326 0 3.45334 0 5.1335 0H13.5335C15.2137 0 16.0537 0 16.6955 0.32698C17.26 0.614601 17.7189 1.07354 18.0065 1.63803C18.3335 2.27976 18.3335 3.11984 18.3335 4.8V13.2C18.3335 14.8802 18.3335 15.7202 18.0065 16.362C17.7189 16.9265 17.26 17.3854 16.6955 17.673C16.0537 18 15.2137 18 13.5335 18H5.1335C3.45334 18 2.61326 18 1.97152 17.673C1.40704 17.3854 0.948097 16.9265 0.660477 16.362C0.333496 15.7202 0.333496 14.8802 0.333496 13.2V4.8ZM14.9739 5.56235C15.1464 5.34672 15.1115 5.03207 14.8958 4.85957C14.6802 4.68706 14.3656 4.72202 14.1931 4.93765L10.0835 10.0746L8.22393 7.75015C8.12904 7.63154 7.98539 7.5625 7.8335 7.5625C7.6816 7.5625 7.53795 7.63154 7.44306 7.75015L3.69306 12.4377C3.52056 12.6533 3.55552 12.9679 3.77115 13.1404C3.98678 13.3129 4.30143 13.278 4.47393 13.0623L7.8335 8.86289L9.69306 11.1873C9.78795 11.306 9.9316 11.375 10.0835 11.375C10.2354 11.375 10.379 11.306 10.4739 11.1873L14.9739 5.56235Z"
        fill="#2F96F0" />
</svg>