<svg width="18" height="17" viewBox="0 0 18 17" fill="none" xmlns="http://www.w3.org/2000/svg">
    <path fill-rule="evenodd" clip-rule="evenodd"
        d="M5 1.75H13V10.25H5L5 1.75ZM16.5 10.25H14V1.75H16.5C16.7761 1.75 17 1.97386 17 2.25V9.75C17 10.0261 16.7761 10.25 16.5 10.25ZM4 1.75H1.5C1.22386 1.75 1 1.97386 1 2.25V9.75C1 10.0261 1.22386 10.25 1.5 10.25H4L4 1.75ZM0 2.25C0 1.42157 0.671573 0.75 1.5 0.75H16.5C17.3284 0.75 18 1.42157 18 2.25V9.75C18 10.5784 17.3284 11.25 16.5 11.25H1.5C0.671573 11.25 0 10.5784 0 9.75V2.25ZM8 6C8 5.44772 8.44771 5 9 5C9.55228 5 10 5.44772 10 6C10 6.55228 9.55228 7 9 7C8.44771 7 8 6.55228 8 6ZM9 4C7.89543 4 7 4.89543 7 6C7 7.10457 7.89543 8 9 8C10.1046 8 11 7.10457 11 6C11 4.89543 10.1046 4 9 4ZM0.25 13.5C0.25 13.2239 0.473858 13 0.75 13H17.25C17.5261 13 17.75 13.2239 17.75 13.5C17.75 13.7761 17.5261 14 17.25 14H0.75C0.473858 14 0.25 13.7761 0.25 13.5ZM0.75 16C0.473858 16 0.25 16.2239 0.25 16.5C0.25 16.7761 0.473858 17 0.75 17H17.25C17.5261 17 17.75 16.7761 17.75 16.5C17.75 16.2239 17.5261 16 17.25 16H0.75Z"
        fill="#2F96F0" />
</svg>