<svg width="37" height="42" viewBox="0 0 37 42" fill="none" xmlns="http://www.w3.org/2000/svg">
    <path fill-rule="evenodd" clip-rule="evenodd"
        d="M14.4651 10.6915C15.0367 9.65877 15.362 8.47083 15.362 7.2069C15.362 3.22664 12.1354 0 8.15514 0C4.17488 0 0.948242 3.22664 0.948242 7.2069C0.948242 11.1872 4.17488 14.4138 8.15514 14.4138C10.5126 14.4138 12.6057 13.2818 13.9206 11.5318L14.6995 11.9827C14.9385 12.1211 15.2444 12.0395 15.3827 11.8005C15.5211 11.5615 15.4395 11.2556 15.2005 11.1173L14.4651 10.6915ZM11.8629 12.1851C13.3798 11.0535 14.362 9.2449 14.362 7.2069C14.362 3.77892 11.5831 1 8.15514 1C4.72716 1 1.94824 3.77892 1.94824 7.2069C1.94824 9.19011 2.87837 10.9561 4.32619 12.0924C4.53887 10.2021 6.14282 8.73291 8.08992 8.73291C10.0687 8.73291 11.6931 10.2504 11.8629 12.1851ZM10.9369 12.757C10.8991 12.6866 10.8776 12.6061 10.8776 12.5206C10.8776 10.981 9.62951 9.73291 8.08992 9.73291C6.55033 9.73291 5.30225 10.981 5.30225 12.5206C5.30225 12.5849 5.2901 12.6464 5.26798 12.7028C6.13043 13.1569 7.11278 13.4138 8.15514 13.4138C9.15528 13.4138 10.1002 13.1772 10.9369 12.757ZM17.3673 12.9495C17.5056 12.7105 17.8115 12.6289 18.0505 12.7673L19.9505 13.8673C20.1895 14.0056 20.2711 14.3115 20.1327 14.5505C19.9944 14.7895 19.6885 14.8711 19.4495 14.7327L17.5495 13.6327C17.3105 13.4944 17.2289 13.1885 17.3673 12.9495ZM22.1173 15.6995C22.2556 15.4605 22.5615 15.3789 22.8005 15.5173L23.6472 16.0075C24.9586 14.6426 26.8024 13.7932 28.8446 13.7932C32.8249 13.7932 36.0515 17.0199 36.0515 21.0001C36.0515 24.9804 32.8249 28.207 28.8446 28.207C26.5539 28.207 24.5129 27.1383 23.1928 25.4724L22.3773 26.016C22.1476 26.1692 21.8372 26.1071 21.684 25.8773C21.5308 25.6476 21.5929 25.3372 21.8226 25.184L22.6274 24.6474C21.9984 23.5775 21.6377 22.331 21.6377 21.0001C21.6377 19.427 22.1417 17.9716 22.9971 16.7866L22.2995 16.3827C22.0605 16.2444 21.9789 15.9385 22.1173 15.6995ZM19.816 27.1227C19.9692 27.3524 19.9071 27.6628 19.6773 27.816L17.8773 29.016C17.6476 29.1692 17.3372 29.1071 17.184 28.8773C17.0308 28.6476 17.0929 28.3372 17.3227 28.184L19.1227 26.984C19.3524 26.8308 19.6628 26.8929 19.816 27.1227ZM15.316 30.1227C15.4692 30.3524 15.4071 30.6628 15.1774 30.816L14.458 31.2956C15.034 32.3313 15.362 33.5239 15.362 34.7931C15.362 38.7733 12.1354 42 8.15514 42C4.17488 42 0.948242 38.7733 0.948242 34.7931C0.948242 30.8128 4.17488 27.5862 8.15514 27.5862C10.5078 27.5862 12.5971 28.7135 13.9125 30.4574L14.6227 29.984C14.8524 29.8308 15.1628 29.8929 15.316 30.1227ZM11.811 39.8096C13.3573 38.6808 14.362 36.8543 14.362 34.7931C14.362 31.3651 11.5831 28.5862 8.15514 28.5862C4.72716 28.5862 1.94824 31.3651 1.94824 34.7931C1.94824 36.8035 2.90402 38.5906 4.38596 39.7249C4.7515 38.0151 6.27098 36.7329 8.08992 36.7329C9.93878 36.7329 11.4782 38.0576 11.811 39.8096ZM10.8738 40.3745C10.7978 38.9028 9.58049 37.7329 8.08992 37.7329C6.62085 37.7329 5.4172 38.8693 5.31001 40.311C6.16229 40.7513 7.12968 41 8.15514 41C9.13022 41 10.0528 40.7751 10.8738 40.3745ZM35.0515 21.0001C35.0515 22.9226 34.1775 24.6409 32.8051 25.7794C32.4605 24.0424 30.9281 22.7329 29.0899 22.7329C27.1359 22.7329 25.5274 24.2126 25.324 26.1126C23.7012 24.993 22.6377 23.1208 22.6377 21.0001C22.6377 17.5721 25.4166 14.7932 28.8446 14.7932C32.2726 14.7932 35.0515 17.5721 35.0515 21.0001ZM29.0899 23.7329C30.5951 23.7329 31.8217 24.9258 31.8757 26.4178C30.9793 26.9204 29.9454 27.207 28.8446 27.207C27.9315 27.207 27.0645 27.0098 26.2837 26.6558C26.2958 26.6128 26.3022 26.5674 26.3022 26.5206C26.3022 24.981 27.5503 23.7329 29.0899 23.7329ZM27.5352 19.5343C27.5352 18.6756 28.2313 17.9795 29.09 17.9795C29.9486 17.9795 30.6447 18.6756 30.6447 19.5343C30.6447 20.393 29.9486 21.0891 29.09 21.0891C28.2313 21.0891 27.5352 20.393 27.5352 19.5343ZM29.09 16.9795C27.679 16.9795 26.5352 18.1233 26.5352 19.5343C26.5352 20.9453 27.679 22.0891 29.09 22.0891C30.5009 22.0891 31.6447 20.9453 31.6447 19.5343C31.6447 18.1233 30.5009 16.9795 29.09 16.9795ZM8.08995 3.97949C7.23126 3.97949 6.53516 4.6756 6.53516 5.53429C6.53516 6.39298 7.23126 7.08908 8.08995 7.08908C8.94864 7.08908 9.64474 6.39298 9.64474 5.53429C9.64474 4.6756 8.94864 3.97949 8.08995 3.97949ZM5.53516 5.53429C5.53516 4.12331 6.67898 2.97949 8.08995 2.97949C9.50093 2.97949 10.6447 4.12331 10.6447 5.53429C10.6447 6.94526 9.50093 8.08908 8.08995 8.08908C6.67898 8.08908 5.53516 6.94526 5.53516 5.53429ZM8.08995 31.9795C7.23126 31.9795 6.53516 32.6756 6.53516 33.5343C6.53516 34.393 7.23126 35.0891 8.08995 35.0891C8.94864 35.0891 9.64474 34.393 9.64474 33.5343C9.64474 32.6756 8.94864 31.9795 8.08995 31.9795ZM5.53516 33.5343C5.53516 32.1233 6.67898 30.9795 8.08995 30.9795C9.50093 30.9795 10.6447 32.1233 10.6447 33.5343C10.6447 34.9453 9.50093 36.0891 8.08995 36.0891C6.67898 36.0891 5.53516 34.9453 5.53516 33.5343Z"
        fill="#2F96F0" />
</svg>