<svg width="24" height="24" viewBox="0 0 24 24" fill="none" xmlns="http://www.w3.org/2000/svg">
    <path fill-rule="evenodd" clip-rule="evenodd"
        d="M7.25 5.25C7.25 4.69772 7.69772 4.25 8.25 4.25H15.75C16.3023 4.25 16.75 4.69772 16.75 5.25V8.25V9.32143V10.0286C16.75 10.7779 16.4139 11.4877 15.8343 11.9625L12.1584 14.9739C12.0663 15.0493 11.9337 15.0493 11.8416 14.9739L8.16571 11.9625C7.58608 11.4877 7.25 10.7779 7.25 10.0286V9.32143V8.25V5.25ZM6.25 6.51756V5.25C6.25 4.14543 7.14543 3.25 8.25 3.25H15.75C16.8546 3.25 17.75 4.14543 17.75 5.25V6.51756C18.0442 6.34739 18.3857 6.25 18.75 6.25C19.8544 6.25 20.75 7.14503 20.75 8.24972V8.2521V8.25449V8.25688V8.25927V8.26166V8.26405V8.26645V8.26885V8.27125V8.27365V8.27605V8.27846V8.28087V8.28328V8.28569V8.2881V8.29052V8.29294V8.29536V8.29778V8.30021V8.30263V8.30506V8.30749V8.30993V8.31236V8.3148V8.31724V8.31968V8.32212V8.32457V8.32701V8.32946V8.33192V8.33437V8.33683V8.33928V8.34174V8.34421V8.34667V8.34914V8.35161V8.35408V8.35655V8.35902V8.3615V8.36398V8.36646V8.36894V8.37143V8.37392V8.37641V8.3789V8.38139V8.38389V8.38638V8.38888V8.39139V8.39389V8.3964V8.3989V8.40141V8.40393V8.40644V8.40896V8.41148V8.414V8.41652V8.41905V8.42157V8.4241V8.42663V8.42917V8.4317V8.43424V8.43678V8.43932V8.44186V8.44441V8.44696V8.44951V8.45206V8.45462V8.45717V8.45973V8.46229V8.46485V8.46742V8.46999V8.47256V8.47513V8.4777V8.48028V8.48285V8.48543V8.48802V8.4906V8.49319V8.49577V8.49836V8.50096V8.50355V8.50615V8.50875V8.51135V8.51395V8.51655V8.51916V8.52177V8.52438V8.527V8.52961V8.53223V8.53485V8.53747V8.54009V8.54272V8.54535V8.54798V8.55061V8.55325V8.55588V8.55852V8.56116V8.56381V8.56645V8.5691V8.57175V8.5744V8.57705V8.57971V8.58237V8.58503V8.58769V8.59035V8.59302V8.59569V8.59836V8.60103V8.60371V8.60639V8.60907V8.61175V8.61443V8.61712V8.6198V8.62249V8.62519V8.62788V8.63058V8.63327V8.63597V8.63868V8.64138V8.64409V8.6468V8.64951V8.65222V8.65494V8.65766V8.66038V8.6631V8.66582V8.66855V8.67128V8.67401V8.67674V8.67947V8.68221V8.68495V8.68769V8.69044V8.69318V8.69593V8.69868V8.70143V8.70418V8.70694V8.7097V8.71246V8.71522V8.71799V8.72075V8.72352V8.72629V8.72907V8.73184V8.73462V8.7374V8.74018V8.74297V8.74575V8.74854V8.75133V8.75412V8.75692V8.75972V8.76251V8.76532V8.76812V8.77092V8.77373V8.77654V8.77935V8.78217V8.78499V8.7878V8.79062V8.79345V8.79627V8.7991V8.80193V8.80476V8.80759V8.81043V8.81327V8.81611V8.81895V8.82179V8.82464V8.82749V8.83034V8.83319V8.83605V8.83891V8.84177V8.84463V8.84749V8.85036V8.85322V8.8561V8.85897V8.86184V8.86472V8.8676V8.87048V8.87336V8.87625V8.87914V8.88203V8.88492V8.88781V8.89071V8.89361V8.89651V8.89941V8.90232V8.90522V8.90813V8.91104V8.91396V8.91687V8.91979V8.92271V8.92563V8.92856V8.93149V8.93441V8.93735V8.94028V8.94322V8.94615V8.94909V8.95203V8.95498V8.95793V8.96087V8.96382V8.96678V8.96973V8.97269V8.97565V8.97861V8.98158V8.98454V8.98751V8.99048V8.99345V8.99643V8.9994V9.00238V9.00536V9.00835V9.01133V9.01432V9.01731V9.0203V9.0233V9.0263V9.02929V9.0323V9.0353V9.0383V9.04131V9.04432V9.04733V9.05035V9.05336V9.05638V9.0594V9.06243V9.06545V9.06848V9.07151V9.07454V9.07757V9.08061V9.08365V9.08669V9.08973V9.09278V9.09582V9.09887V9.10192V9.10498V9.10803V9.11109V9.11415V9.11721V9.12028V9.12335V9.12642V9.12949V9.13256V9.13564V9.13871V9.14179V9.14488V9.14796V9.15105V9.15414V9.15723V9.16032V9.16342V9.16651V9.16961V9.17272V9.17582V9.17893V9.18204V9.18515V9.18826V9.19138V9.19449V9.19761V9.20074V9.20386V9.20699V9.21012V9.21325V9.21638V9.21952V9.22265V9.22579V9.22894V9.23208V9.23523V9.23837V9.24153V9.24468V9.24783V9.25099V9.25415V9.25731V9.26048V9.26364V9.26681V9.26998V9.27316V9.27633V9.27951V9.28269V9.28587V9.28906V9.29224V9.29543V9.29862V9.30182V9.30501V9.30821V9.31141V9.31461V9.31781V9.32102V9.32423V9.32744V9.33065V9.33387V9.33709V9.34031V9.34353V9.34675V9.34998V9.35321V9.35644V9.35967V9.36291V9.36615V9.36939V9.37263V9.37587V9.37912V9.38237V9.38562V9.38887V9.39213V9.39539V9.39865V9.40191V9.40517V9.40844V9.41171V9.41498V9.41825V9.42153V9.42481V9.42809V9.43137V9.43466V9.43794V9.44123V9.44452V9.44782V9.45111V9.45441V9.45771V9.46101V9.46432V9.46763V9.47094V9.47425V9.47756V9.48088V9.4842V9.48752V9.49084V9.49417V9.49749V9.50082V9.50415V9.50749V9.51083V9.51416V9.5175V9.52085V9.52419V9.52754V9.53089V9.53424V9.5376V9.54095V9.54431V9.54768V9.55104V9.5544V9.55777V9.56114V9.56452V9.56789V9.57127V9.57465V9.57803V9.58141V9.5848V9.58819V9.59158V9.59497V9.59837V9.60176V9.60516V9.60856V9.61197V9.61538V9.61878V9.6222V9.62561V9.62902V9.63244V9.63586V9.63928V9.64271V9.64614V9.64956V9.653V9.65643V9.65987V9.6633V9.66674V9.67019V9.67363V9.67708V9.68053V9.68398V9.68744V9.69089V9.69435V9.69781V9.70127V9.70474V9.70821V9.71168V9.71515V9.71863V9.7221V9.72558V9.72906V9.73255V9.73603V9.73952V9.74301V9.7465V9.75C20.75 10.9027 20.4802 11.7315 20.1939 12.2837C20.0514 12.5585 19.9064 12.7618 19.7922 12.9004C19.7351 12.9697 19.6858 13.0229 19.6483 13.0607C19.6296 13.0797 19.6138 13.0948 19.6015 13.1062L19.5856 13.1207L19.5798 13.1258L19.5774 13.1279L19.5764 13.1288L19.5759 13.1292C19.5756 13.1294 19.5754 13.1296 19.25 12.75L19.5754 13.1296C19.3657 13.3093 19.0501 13.2851 18.8704 13.0754C18.6919 12.8672 18.7146 12.5544 18.9203 12.3741L18.9204 12.374L18.9217 12.3729L18.921 12.3735C18.9233 12.3713 18.929 12.3659 18.9376 12.3572C18.9548 12.3399 18.9836 12.3093 19.0203 12.2647C19.0936 12.1757 19.1986 12.0308 19.3061 11.8234C19.5198 11.4114 19.75 10.7402 19.75 9.75V9.7465V9.74301V9.73952V9.73603V9.73255V9.72906V9.72558V9.7221V9.71863V9.71515V9.71168V9.70821V9.70474V9.70127V9.69781V9.69435V9.69089V9.68744V9.68398V9.68053V9.67708V9.67363V9.67019V9.66674V9.6633V9.65987V9.65643V9.653V9.64956V9.64614V9.64271V9.63928V9.63586V9.63244V9.62902V9.62561V9.6222V9.61878V9.61538V9.61197V9.60856V9.60516V9.60176V9.59837V9.59497V9.59158V9.58819V9.5848V9.58141V9.57803V9.57465V9.57127V9.56789V9.56452V9.56114V9.55777V9.5544V9.55104V9.54768V9.54431V9.54095V9.5376V9.53424V9.53089V9.52754V9.52419V9.52085V9.5175V9.51416V9.51083V9.50749V9.50415V9.50082V9.49749V9.49417V9.49084V9.48752V9.4842V9.48088V9.47756V9.47425V9.47094V9.46763V9.46432V9.46101V9.45771V9.45441V9.45111V9.44782V9.44452V9.44123V9.43794V9.43466V9.43137V9.42809V9.42481V9.42153V9.41825V9.41498V9.41171V9.40844V9.40517V9.40191V9.39865V9.39539V9.39213V9.38887V9.38562V9.38237V9.37912V9.37587V9.37263V9.36939V9.36615V9.36291V9.35967V9.35644V9.35321V9.34998V9.34675V9.34353V9.34031V9.33709V9.33387V9.33065V9.32744V9.32423V9.32102V9.31781V9.31461V9.31141V9.30821V9.30501V9.30182V9.29862V9.29543V9.29224V9.28906V9.28587V9.28269V9.27951V9.27633V9.27316V9.26998V9.26681V9.26364V9.26048V9.25731V9.25415V9.25099V9.24783V9.24468V9.24153V9.23837V9.23523V9.23208V9.22894V9.22579V9.22265V9.21952V9.21638V9.21325V9.21012V9.20699V9.20386V9.20074V9.19761V9.19449V9.19138V9.18826V9.18515V9.18204V9.17893V9.17582V9.17272V9.16961V9.16651V9.16342V9.16032V9.15723V9.15414V9.15105V9.14796V9.14488V9.14179V9.13871V9.13564V9.13256V9.12949V9.12642V9.12335V9.12028V9.11721V9.11415V9.11109V9.10803V9.10498V9.10192V9.09887V9.09582V9.09278V9.08973V9.08669V9.08365V9.08061V9.07757V9.07454V9.07151V9.06848V9.06545V9.06243V9.0594V9.05638V9.05336V9.05035V9.04733V9.04432V9.04131V9.0383V9.0353V9.0323V9.02929V9.0263V9.0233V9.0203V9.01731V9.01432V9.01133V9.00835V9.00536V9.00238V8.9994V8.99643V8.99345V8.99048V8.98751V8.98454V8.98158V8.97861V8.97565V8.97269V8.96973V8.96678V8.96382V8.96087V8.95793V8.95498V8.95203V8.94909V8.94615V8.94322V8.94028V8.93735V8.93441V8.93149V8.92856V8.92563V8.92271V8.91979V8.91687V8.91396V8.91104V8.90813V8.90522V8.90232V8.89941V8.89651V8.89361V8.89071V8.88781V8.88492V8.88203V8.87914V8.87625V8.87336V8.87048V8.8676V8.86472V8.86184V8.85897V8.8561V8.85322V8.85036V8.84749V8.84463V8.84177V8.83891V8.83605V8.83319V8.83034V8.82749V8.82464V8.82179V8.81895V8.81611V8.81327V8.81043V8.80759V8.80476V8.80193V8.7991V8.79627V8.79345V8.79062V8.7878V8.78499V8.78217V8.77935V8.77654V8.77373V8.77092V8.76812V8.76532V8.76251V8.75972V8.75692V8.75412V8.75133V8.74854V8.74575V8.74297V8.74018V8.7374V8.73462V8.73184V8.72907V8.72629V8.72352V8.72075V8.71799V8.71522V8.71246V8.7097V8.70694V8.70418V8.70143V8.69868V8.69593V8.69318V8.69044V8.68769V8.68495V8.68221V8.67947V8.67674V8.67401V8.67128V8.66855V8.66582V8.6631V8.66038V8.65766V8.65494V8.65222V8.64951V8.6468V8.64409V8.64138V8.63868V8.63597V8.63327V8.63058V8.62788V8.62519V8.62249V8.6198V8.61712V8.61443V8.61175V8.60907V8.60639V8.60371V8.60103V8.59836V8.59569V8.59302V8.59035V8.58769V8.58503V8.58237V8.57971V8.57705V8.5744V8.57175V8.5691V8.56645V8.56381V8.56116V8.55852V8.55588V8.55325V8.55061V8.54798V8.54535V8.54272V8.54009V8.53747V8.53485V8.53223V8.52961V8.527V8.52438V8.52177V8.51916V8.51655V8.51395V8.51135V8.50875V8.50615V8.50355V8.50096V8.49836V8.49577V8.49319V8.4906V8.48802V8.48543V8.48285V8.48028V8.4777V8.47513V8.47256V8.46999V8.46742V8.46485V8.46229V8.45973V8.45717V8.45462V8.45206V8.44951V8.44696V8.44441V8.44186V8.43932V8.43678V8.43424V8.4317V8.42917V8.42663V8.4241V8.42157V8.41905V8.41652V8.414V8.41148V8.40896V8.40644V8.40393V8.40141V8.3989V8.3964V8.39389V8.39139V8.38888V8.38638V8.38389V8.38139V8.3789V8.37641V8.37392V8.37143V8.36894V8.36646V8.36398V8.3615V8.35902V8.35655V8.35408V8.35161V8.34914V8.34667V8.34421V8.34174V8.33928V8.33683V8.33437V8.33192V8.32946V8.32701V8.32457V8.32212V8.31968V8.31724V8.3148V8.31236V8.30993V8.30749V8.30506V8.30263V8.30021V8.29778V8.29536V8.29294V8.29052V8.2881V8.28569V8.28328V8.28087V8.27846V8.27605V8.27365V8.27125V8.26885V8.26645V8.26405V8.26166V8.25927V8.25688V8.25449V8.2521V8.24972C19.75 7.69756 19.3024 7.25 18.75 7.25C18.1977 7.25 17.75 7.69772 17.75 8.25V9.32143V10.0286C17.75 11.0776 17.2795 12.0713 16.468 12.7361L12.7921 15.7474C12.7016 15.8216 12.6032 15.8812 12.5 15.9263V18C12.5 18.2761 12.2761 18.5 12 18.5C11.7239 18.5 11.5 18.2761 11.5 18V15.9263C11.3968 15.8812 11.2984 15.8216 11.2079 15.7474L7.53199 12.7361C6.72052 12.0713 6.25 11.0776 6.25 10.0286V9.32143V8.25C6.25 7.69772 5.80228 7.25 5.25 7.25C4.69759 7.25 4.25 7.69756 4.25 8.24972V8.2521V8.25449V8.25688V8.25927V8.26166V8.26405V8.26645V8.26885V8.27125V8.27365V8.27605V8.27846V8.28087V8.28328V8.28569V8.2881V8.29052V8.29294V8.29536V8.29778V8.30021V8.30263V8.30506V8.30749V8.30993V8.31236V8.3148V8.31724V8.31968V8.32212V8.32457V8.32701V8.32946V8.33192V8.33437V8.33683V8.33928V8.34174V8.34421V8.34667V8.34914V8.35161V8.35408V8.35655V8.35902V8.3615V8.36398V8.36646V8.36894V8.37143V8.37392V8.37641V8.3789V8.38139V8.38389V8.38638V8.38888V8.39139V8.39389V8.3964V8.3989V8.40141V8.40393V8.40644V8.40896V8.41148V8.414V8.41652V8.41905V8.42157V8.4241V8.42663V8.42917V8.4317V8.43424V8.43678V8.43932V8.44186V8.44441V8.44696V8.44951V8.45206V8.45462V8.45717V8.45973V8.46229V8.46485V8.46742V8.46999V8.47256V8.47513V8.4777V8.48028V8.48285V8.48543V8.48802V8.4906V8.49319V8.49577V8.49836V8.50096V8.50355V8.50615V8.50875V8.51135V8.51395V8.51655V8.51916V8.52177V8.52438V8.527V8.52961V8.53223V8.53485V8.53747V8.54009V8.54272V8.54535V8.54798V8.55061V8.55325V8.55588V8.55852V8.56116V8.56381V8.56645V8.5691V8.57175V8.5744V8.57705V8.57971V8.58237V8.58503V8.58769V8.59035V8.59302V8.59569V8.59836V8.60103V8.60371V8.60639V8.60907V8.61175V8.61443V8.61712V8.6198V8.62249V8.62519V8.62788V8.63058V8.63327V8.63597V8.63868V8.64138V8.64409V8.6468V8.64951V8.65222V8.65494V8.65766V8.66038V8.6631V8.66582V8.66855V8.67128V8.67401V8.67674V8.67947V8.68221V8.68495V8.68769V8.69044V8.69318V8.69593V8.69868V8.70143V8.70418V8.70694V8.7097V8.71246V8.71522V8.71799V8.72075V8.72352V8.72629V8.72907V8.73184V8.73462V8.7374V8.74018V8.74297V8.74575V8.74854V8.75133V8.75412V8.75692V8.75972V8.76251V8.76532V8.76812V8.77092V8.77373V8.77654V8.77935V8.78217V8.78499V8.7878V8.79062V8.79345V8.79627V8.7991V8.80193V8.80476V8.80759V8.81043V8.81327V8.81611V8.81895V8.82179V8.82464V8.82749V8.83034V8.83319V8.83605V8.83891V8.84177V8.84463V8.84749V8.85036V8.85322V8.8561V8.85897V8.86184V8.86472V8.8676V8.87048V8.87336V8.87625V8.87914V8.88203V8.88492V8.88781V8.89071V8.89361V8.89651V8.89941V8.90232V8.90522V8.90813V8.91104V8.91396V8.91687V8.91979V8.92271V8.92563V8.92856V8.93149V8.93441V8.93735V8.94028V8.94322V8.94615V8.94909V8.95203V8.95498V8.95793V8.96087V8.96382V8.96678V8.96973V8.97269V8.97565V8.97861V8.98158V8.98454V8.98751V8.99048V8.99345V8.99643V8.9994V9.00238V9.00536V9.00835V9.01133V9.01432V9.01731V9.0203V9.0233V9.0263V9.02929V9.0323V9.0353V9.0383V9.04131V9.04432V9.04733V9.05035V9.05336V9.05638V9.0594V9.06243V9.06545V9.06848V9.07151V9.07454V9.07757V9.08061V9.08365V9.08669V9.08973V9.09278V9.09582V9.09887V9.10192V9.10498V9.10803V9.11109V9.11415V9.11721V9.12028V9.12335V9.12642V9.12949V9.13256V9.13564V9.13871V9.14179V9.14488V9.14796V9.15105V9.15414V9.15723V9.16032V9.16342V9.16651V9.16961V9.17272V9.17582V9.17893V9.18204V9.18515V9.18826V9.19138V9.19449V9.19761V9.20074V9.20386V9.20699V9.21012V9.21325V9.21638V9.21952V9.22265V9.22579V9.22894V9.23208V9.23523V9.23837V9.24153V9.24468V9.24783V9.25099V9.25415V9.25731V9.26048V9.26364V9.26681V9.26998V9.27316V9.27633V9.27951V9.28269V9.28587V9.28906V9.29224V9.29543V9.29862V9.30182V9.30501V9.30821V9.31141V9.31461V9.31781V9.32102V9.32423V9.32744V9.33065V9.33387V9.33709V9.34031V9.34353V9.34675V9.34998V9.35321V9.35644V9.35967V9.36291V9.36615V9.36939V9.37263V9.37587V9.37912V9.38237V9.38562V9.38887V9.39213V9.39539V9.39865V9.40191V9.40517V9.40844V9.41171V9.41498V9.41825V9.42153V9.42481V9.42809V9.43137V9.43466V9.43794V9.44123V9.44452V9.44782V9.45111V9.45441V9.45771V9.46101V9.46432V9.46763V9.47094V9.47425V9.47756V9.48088V9.4842V9.48752V9.49084V9.49417V9.49749V9.50082V9.50415V9.50749V9.51083V9.51416V9.5175V9.52085V9.52419V9.52754V9.53089V9.53424V9.5376V9.54095V9.54431V9.54768V9.55104V9.5544V9.55777V9.56114V9.56452V9.56789V9.57127V9.57465V9.57803V9.58141V9.5848V9.58819V9.59158V9.59497V9.59837V9.60176V9.60516V9.60856V9.61197V9.61538V9.61878V9.6222V9.62561V9.62902V9.63244V9.63586V9.63928V9.64271V9.64614V9.64956V9.653V9.65643V9.65987V9.6633V9.66674V9.67019V9.67363V9.67708V9.68053V9.68398V9.68744V9.69089V9.69435V9.69781V9.70127V9.70474V9.70821V9.71168V9.71515V9.71863V9.7221V9.72558V9.72906V9.73255V9.73603V9.73952V9.74301V9.7465V9.75C4.25 10.7402 4.48022 11.4114 4.69388 11.8234C4.80139 12.0308 4.9064 12.1757 4.97972 12.2647C5.0164 12.3093 5.04518 12.3399 5.06237 12.3572C5.07097 12.3659 5.07667 12.3713 5.079 12.3735L4.25 8.24972L5.07964 12.3741C5.28538 12.5544 5.30812 12.8672 5.12963 13.0754C4.94992 13.2851 4.63427 13.3093 4.4246 13.1296L4.75 12.75C4.4246 13.1296 4.42437 13.1294 4.42413 13.1292L4.42364 13.1288L4.42259 13.1279L4.4202 13.1258L4.41436 13.1207L4.39854 13.1062C4.38622 13.0948 4.37043 13.0797 4.35169 13.0607C4.3142 13.0229 4.26485 12.9697 4.20778 12.9004C4.0936 12.7618 3.94861 12.5585 3.80612 12.2837C3.51978 11.7315 3.25 10.9027 3.25 9.75V9.7465V9.74301V9.73952V9.73603V9.73255V9.72906V9.72558V9.7221V9.71863V9.71515V9.71168V9.70821V9.70474V9.70127V9.69781V9.69435V9.69089V9.68744V9.68398V9.68053V9.67708V9.67363V9.67019V9.66674V9.6633V9.65987V9.65643V9.653V9.64956V9.64614V9.64271V9.63928V9.63586V9.63244V9.62902V9.62561V9.6222V9.61878V9.61538V9.61197V9.60856V9.60516V9.60176V9.59837V9.59497V9.59158V9.58819V9.5848V9.58141V9.57803V9.57465V9.57127V9.56789V9.56452V9.56114V9.55777V9.5544V9.55104V9.54768V9.54431V9.54095V9.5376V9.53424V9.53089V9.52754V9.52419V9.52085V9.5175V9.51416V9.51083V9.50749V9.50415V9.50082V9.49749V9.49417V9.49084V9.48752V9.4842V9.48088V9.47756V9.47425V9.47094V9.46763V9.46432V9.46101V9.45771V9.45441V9.45111V9.44782V9.44452V9.44123V9.43794V9.43466V9.43137V9.42809V9.42481V9.42153V9.41825V9.41498V9.41171V9.40844V9.40517V9.40191V9.39865V9.39539V9.39213V9.38887V9.38562V9.38237V9.37912V9.37587V9.37263V9.36939V9.36615V9.36291V9.35967V9.35644V9.35321V9.34998V9.34675V9.34353V9.34031V9.33709V9.33387V9.33065V9.32744V9.32423V9.32102V9.31781V9.31461V9.31141V9.30821V9.30501V9.30182V9.29862V9.29543V9.29224V9.28906V9.28587V9.28269V9.27951V9.27633V9.27316V9.26998V9.26681V9.26364V9.26048V9.25731V9.25415V9.25099V9.24783V9.24468V9.24153V9.23837V9.23523V9.23208V9.22894V9.22579V9.22265V9.21952V9.21638V9.21325V9.21012V9.20699V9.20386V9.20074V9.19761V9.19449V9.19138V9.18826V9.18515V9.18204V9.17893V9.17582V9.17272V9.16961V9.16651V9.16342V9.16032V9.15723V9.15414V9.15105V9.14796V9.14488V9.14179V9.13871V9.13564V9.13256V9.12949V9.12642V9.12335V9.12028V9.11721V9.11415V9.11109V9.10803V9.10498V9.10192V9.09887V9.09582V9.09278V9.08973V9.08669V9.08365V9.08061V9.07757V9.07454V9.07151V9.06848V9.06545V9.06243V9.0594V9.05638V9.05336V9.05035V9.04733V9.04432V9.04131V9.0383V9.0353V9.0323V9.02929V9.0263V9.0233V9.0203V9.01731V9.01432V9.01133V9.00835V9.00536V9.00238V8.9994V8.99643V8.99345V8.99048V8.98751V8.98454V8.98158V8.97861V8.97565V8.97269V8.96973V8.96678V8.96382V8.96087V8.95793V8.95498V8.95203V8.94909V8.94615V8.94322V8.94028V8.93735V8.93441V8.93149V8.92856V8.92563V8.92271V8.91979V8.91687V8.91396V8.91104V8.90813V8.90522V8.90232V8.89941V8.89651V8.89361V8.89071V8.88781V8.88492V8.88203V8.87914V8.87625V8.87336V8.87048V8.8676V8.86472V8.86184V8.85897V8.8561V8.85322V8.85036V8.84749V8.84463V8.84177V8.83891V8.83605V8.83319V8.83034V8.82749V8.82464V8.82179V8.81895V8.81611V8.81327V8.81043V8.80759V8.80476V8.80193V8.7991V8.79627V8.79345V8.79062V8.7878V8.78499V8.78217V8.77935V8.77654V8.77373V8.77092V8.76812V8.76532V8.76251V8.75972V8.75692V8.75412V8.75133V8.74854V8.74575V8.74297V8.74018V8.7374V8.73462V8.73184V8.72907V8.72629V8.72352V8.72075V8.71799V8.71522V8.71246V8.7097V8.70694V8.70418V8.70143V8.69868V8.69593V8.69318V8.69044V8.68769V8.68495V8.68221V8.67947V8.67674V8.67401V8.67128V8.66855V8.66582V8.6631V8.66038V8.65766V8.65494V8.65222V8.64951V8.6468V8.64409V8.64138V8.63868V8.63597V8.63327V8.63058V8.62788V8.62519V8.62249V8.6198V8.61712V8.61443V8.61175V8.60907V8.60639V8.60371V8.60103V8.59836V8.59569V8.59302V8.59035V8.58769V8.58503V8.58237V8.57971V8.57705V8.5744V8.57175V8.5691V8.56645V8.56381V8.56116V8.55852V8.55588V8.55325V8.55061V8.54798V8.54535V8.54272V8.54009V8.53747V8.53485V8.53223V8.52961V8.527V8.52438V8.52177V8.51916V8.51655V8.51395V8.51135V8.50875V8.50615V8.50355V8.50096V8.49836V8.49577V8.49319V8.4906V8.48802V8.48543V8.48285V8.48028V8.4777V8.47513V8.47256V8.46999V8.46742V8.46485V8.46229V8.45973V8.45717V8.45462V8.45206V8.44951V8.44696V8.44441V8.44186V8.43932V8.43678V8.43424V8.4317V8.42917V8.42663V8.4241V8.42157V8.41905V8.41652V8.414V8.41148V8.40896V8.40644V8.40393V8.40141V8.3989V8.3964V8.39389V8.39139V8.38888V8.38638V8.38389V8.38139V8.3789V8.37641V8.37392V8.37143V8.36894V8.36646V8.36398V8.3615V8.35902V8.35655V8.35408V8.35161V8.34914V8.34667V8.34421V8.34174V8.33928V8.33683V8.33437V8.33192V8.32946V8.32701V8.32457V8.32212V8.31968V8.31724V8.3148V8.31236V8.30993V8.30749V8.30506V8.30263V8.30021V8.29778V8.29536V8.29294V8.29052V8.2881V8.28569V8.28328V8.28087V8.27846V8.27605V8.27365V8.27125V8.26885V8.26645V8.26405V8.26166V8.25927V8.25688V8.25449V8.2521V8.24972C3.25 7.14503 4.14555 6.25 5.25 6.25C5.61429 6.25 5.95583 6.34739 6.25 6.51756ZM7.75 20.25C7.75 19.9739 7.97386 19.75 8.25 19.75H15.75C16.0261 19.75 16.25 19.9739 16.25 20.25C16.25 20.5261 16.0261 20.75 15.75 20.75H8.25C7.97386 20.75 7.75 20.5261 7.75 20.25Z"
        fill="#2F96F0" />
</svg>