<svg width="34" height="40" viewBox="0 0 34 40" fill="none" xmlns="http://www.w3.org/2000/svg">
    <path fill-rule="evenodd" clip-rule="evenodd"
        d="M10.3646 5.23649C12.7084 4.47748 14.7417 3.28041 16.2853 1.54652C17.8522 3.04046 19.7397 4.14279 21.8534 4.90902C25.1422 6.10131 28.6056 6.39524 31.5316 6.19976C31.7191 6.18724 31.8736 6.17441 31.9884 6.16308V20.9302C31.9884 24.7304 30.9404 27.9769 28.5353 30.8194C26.1037 33.6933 22.1941 36.2609 16.2804 38.4923C10.764 36.2565 7.08801 33.6756 4.7892 30.7974C2.50903 27.9425 1.5 24.6911 1.5 20.9302V6.1631C1.61426 6.17442 1.76792 6.18724 1.95393 6.19976C4.51433 6.37212 7.51758 6.15848 10.3646 5.23649ZM15.2278 0.477828C15.7532 -0.124185 16.6759 -0.162843 17.2499 0.39311C18.6582 1.75722 20.3833 2.78058 22.3646 3.49883C25.4204 4.60663 28.6693 4.88764 31.4316 4.7031C31.6804 4.68648 31.8487 4.67049 31.9264 4.66116C32.7571 4.56123 33.4884 5.20982 33.4884 6.04652V20.9302C33.4884 29.1476 28.9065 35.341 16.7708 39.9105C16.4429 40.0339 16.0807 40.0296 15.756 39.8982C4.39373 35.3035 0 29.0431 0 20.9302V6.04652C0 5.20982 0.731275 4.56123 1.56199 4.66116C1.63989 4.67053 1.8078 4.68653 2.05468 4.70315C4.46799 4.8656 7.27407 4.66064 9.90249 3.80946C12.0827 3.10341 13.8905 2.01007 15.2278 0.477828ZM17.4949 14.1552C17.4949 13.741 17.1591 13.4052 16.7449 13.4052C16.3307 13.4052 15.9949 13.741 15.9949 14.1552L15.9949 25.318C15.9949 25.7322 16.3307 26.068 16.7449 26.068C17.1591 26.068 17.4949 25.7322 17.4949 25.318V14.1552ZM23.2555 10.6142C23.6697 10.6142 24.0055 10.95 24.0055 11.3642V22.527C24.0055 22.9412 23.6697 23.277 23.2555 23.277C22.8413 23.277 22.5055 22.9412 22.5055 22.527V11.3642C22.5055 10.95 22.8413 10.6142 23.2555 10.6142ZM10.9828 16.9458C10.9828 16.5316 10.6471 16.1958 10.2328 16.1958C9.81863 16.1958 9.48285 16.5316 9.48285 16.9458L9.48284 28.1086C9.48284 28.5228 9.81863 28.8586 10.2328 28.8586C10.6471 28.8586 10.9828 28.5228 10.9828 28.1086L10.9828 16.9458Z"
        fill="#2F96F0" />
</svg>