<svg width="21" height="14" viewBox="0 0 21 14" fill="none" xmlns="http://www.w3.org/2000/svg">
    <path fill-rule="evenodd" clip-rule="evenodd"
        d="M15.3894 1.41608L17.6394 2.91608C17.8073 3.02804 18.0261 3.02804 18.1941 2.91608L20.4441 1.41608C20.6739 1.2629 20.736 0.952468 20.5828 0.722704C20.4296 0.492939 20.1192 0.430852 19.8894 0.584028L17.9167 1.89913L15.9441 0.584028C15.7143 0.430852 15.4039 0.492939 15.2507 0.722703C15.0975 0.952467 15.1596 1.2629 15.3894 1.41608ZM3.06675 0.500051L3.0461 0.500051C2.64362 0.500045 2.31143 0.500039 2.04084 0.522148C1.75979 0.545111 1.50144 0.594393 1.25877 0.718038C0.882445 0.909785 0.576483 1.21575 0.384737 1.59207C0.261091 1.83474 0.211809 2.09309 0.188847 2.37414C0.166739 2.64472 0.166743 2.97688 0.166748 3.37934V3.3794V3.40005V5.50005V10.6001V10.6207V10.6208C0.166743 11.0232 0.166739 11.3554 0.188847 11.626C0.211809 11.907 0.261091 12.1654 0.384737 12.408C0.576483 12.7844 0.882445 13.0903 1.25877 13.2821C1.50144 13.4057 1.75979 13.455 2.04084 13.478C2.31143 13.5001 2.64361 13.5001 3.04609 13.5001H3.06675H16.2667H16.2874C16.6899 13.5001 17.0221 13.5001 17.2927 13.478C17.5737 13.455 17.8321 13.4057 18.0747 13.2821C18.4511 13.0903 18.757 12.7844 18.9488 12.408C19.0724 12.1654 19.1217 11.907 19.1447 11.626C19.1668 11.3554 19.1668 11.0232 19.1667 10.6208V10.6207V10.6001V5.50005V5.00005H18.1667L1.16675 5.00005V3.40005C1.16675 2.97176 1.16714 2.68061 1.18553 2.45557C1.20344 2.23636 1.2359 2.12426 1.27574 2.04606C1.37162 1.8579 1.5246 1.70492 1.71276 1.60904C1.79096 1.5692 1.90306 1.53674 2.12227 1.51883C2.34731 1.50044 2.63846 1.50005 3.06675 1.50005H12.6667V0.500051H3.06675ZM1.16675 10.6001V6.00005L18.1667 6.00005V10.6001C18.1667 11.0283 18.1664 11.3195 18.148 11.5445C18.1301 11.7637 18.0976 11.8758 18.0578 11.954C17.9619 12.1422 17.8089 12.2952 17.6207 12.3911C17.5425 12.4309 17.4304 12.4634 17.2112 12.4813C16.9862 12.4997 16.695 12.5001 16.2667 12.5001H3.06675C2.63846 12.5001 2.34731 12.4997 2.12227 12.4813C1.90306 12.4634 1.79096 12.4309 1.71276 12.3911C1.5246 12.2952 1.37162 12.1422 1.27574 11.954C1.2359 11.8758 1.20344 11.7637 1.18553 11.5445C1.16714 11.3195 1.16675 11.0283 1.16675 10.6001ZM3.66676 10.5001L7.41676 10.5C7.6929 10.5 7.91675 10.2762 7.91675 10C7.91675 9.7239 7.69289 9.50005 7.41674 9.50005L3.66674 9.5001C3.3906 9.5001 3.16675 9.72396 3.16675 10.0001C3.16675 10.2762 3.39061 10.5001 3.66676 10.5001Z"
        fill="#2F96F0" />
</svg>